<svg version="1.1" xmlns="http://www.w3.org/2000/svg" xmlns:xlink="http://www.w3.org/1999/xlink" width="94.74016" height="54.29921" viewBox="0,0,94.74016,54.29921"><g transform="translate(-192.62992,-152.8504)"><g data-paper-data="{&quot;isPaintingLayer&quot;:true}" stroke="none" stroke-width="1" stroke-linecap="square" stroke-linejoin="miter" stroke-miterlimit="10" stroke-dasharray="" stroke-dashoffset="0" style="mix-blend-mode: normal"><path d="M192.62992,169.26993v0c0,-9.06826 7.35129,-16.41953 16.41954,-16.41953h61.9011v0c4.3547,0 8.53109,1.72991 11.61035,4.80916c3.07925,3.07927 4.80917,7.25564 4.80917,11.61037v21.46014c0,9.06825 -7.35129,16.41954 -16.41952,16.41954h-61.90109c-9.06826,0 -16.41954,-7.35129 -16.41954,-16.41954z" fill="#a6c9ff" fill-rule="evenodd"/><path d="M199.7408,188.89054c-0.08334,-0.02083 -0.14584,-0.0625 -0.1875,-0.125c-0.03125,-0.0625 -0.04687,-0.13541 -0.04687,-0.21875c0,-0.07291 0.01563,-0.13021 0.04688,-0.17187l1.35938,-2.60937c0.01041,-0.03125 0.02084,-0.14583 0.03125,-0.34375c0.02084,-0.19791 0.04166,-0.44271 0.0625,-0.73437c0.03125,-0.30208 0.05729,-0.63541 0.07813,-1c0.03125,-0.375 0.05729,-0.73958 0.07813,-1.09375c0.03125,-0.36458 0.05729,-0.70833 0.07813,-1.03125c0.03125,-0.33333 0.05729,-0.61458 0.07813,-0.84375c0.01041,-0.08333 0.02084,-0.21354 0.03125,-0.39062c0.02084,-0.1875 0.03646,-0.39583 0.04688,-0.625c0.02084,-0.23958 0.04166,-0.49479 0.0625,-0.76562c0.02084,-0.28125 0.04166,-0.55729 0.0625,-0.82812l0.15625,-2.3125c-0.19791,0.04167 -0.40625,0.08854 -0.625,0.14063c-0.20834,0.05209 -0.41666,0.09896 -0.625,0.14063c-0.19791,0.03125 -0.39062,0.0625 -0.57812,0.09375c-0.17709,0.02084 -0.33334,0.03125 -0.46875,0.03125c-0.07291,0 -0.13021,-0.03646 -0.17187,-0.10937c-0.04166,-0.07291 -0.0625,-0.15104 -0.0625,-0.23437c0,-0.09375 0.02084,-0.16666 0.0625,-0.21875l2.8125,-2.60937c0.22916,-0.20833 0.45313,-0.375 0.67188,-0.5c0.22916,-0.13541 0.5,-0.23958 0.8125,-0.3125c0.32291,-0.07291 0.71354,-0.11979 1.17188,-0.14062c0.45834,-0.03125 1.04166,-0.04687 1.75,-0.04687c1.21875,0 2.29166,0.125 3.21875,0.375c0.9375,0.25 1.73438,0.60938 2.39063,1.07813c0.47916,0.32292 0.90625,0.66667 1.28125,1.03125c0.375,0.36459 0.6875,0.76563 0.9375,1.20313c0.26041,0.4375 0.45834,0.92188 0.59375,1.45313c0.13541,0.52084 0.20313,1.11459 0.20313,1.78125c0,1.26042 -0.1875,2.38021 -0.5625,3.35938c-0.375,0.97917 -0.89062,1.83854 -1.54687,2.57813c-0.64584,0.72917 -1.40104,1.34896 -2.26562,1.85938c-0.86459,0.51042 -1.79166,0.92709 -2.78125,1.25c-0.97916,0.3125 -1.99479,0.53646 -3.04687,0.67188c-1.05209,0.14584 -2.08334,0.21875 -3.09375,0.21875zM206.16268,175.56241l-0.125,1.34375c-0.04166,0.46875 -0.08854,0.96875 -0.14062,1.5c-0.05209,0.52084 -0.09896,1.05209 -0.14062,1.59375c-0.04166,0.54167 -0.08854,1.07813 -0.14062,1.60938c-0.04166,0.52084 -0.08334,1.01042 -0.125,1.46875c-0.03125,0.45834 -0.0625,0.86979 -0.09375,1.23438c-0.02084,0.35417 -0.04166,0.64063 -0.0625,0.85938l-0.04687,0.32813c0.89584,0 1.65104,-0.14062 2.26563,-0.42187c0.61459,-0.29166 1.11459,-0.6875 1.5,-1.1875c0.38541,-0.51041 0.66146,-1.10416 0.82813,-1.78125c0.17709,-0.67708 0.26563,-1.40625 0.26563,-2.1875c0,-0.5625 -0.07812,-1.10416 -0.23437,-1.625c-0.14584,-0.52083 -0.36979,-1.01562 -0.67187,-1.48437c-0.29166,-0.47916 -0.65104,-0.83333 -1.07812,-1.0625c-0.42709,-0.23958 -0.91146,-0.35937 -1.45312,-0.35937c-0.08334,0 -0.17709,0.02084 -0.28125,0.0625c-0.10416,0.04167 -0.19271,0.07813 -0.26562,0.10938zM222.85274,175.96866c0.69791,0 1.33334,0.13021 1.90625,0.39063c0.57291,0.26042 1.0625,0.59896 1.46875,1.01563c0.41666,0.41667 0.73438,0.88542 0.95313,1.40625c0.21875,0.51042 0.32813,1.02604 0.32813,1.54688c0,0.45834 -0.14062,0.91667 -0.42187,1.375c-0.28125,0.45834 -0.67709,0.875 -1.1875,1.25c-0.5,0.36459 -1.10416,0.66146 -1.8125,0.89063c-0.70834,0.22917 -1.48437,0.34375 -2.32812,0.34375c-0.44791,0 -0.91146,-0.04687 -1.39062,-0.14062c0.02084,0.32292 0.10938,0.59896 0.26563,0.82813c0.15625,0.22917 0.35416,0.41667 0.59375,0.5625c0.23959,0.14584 0.50521,0.25521 0.79688,0.32813c0.30209,0.07292 0.60938,0.10938 0.92188,0.10938c0.35416,0 0.69271,-0.03125 1.01563,-0.09375c0.33334,-0.07291 0.65104,-0.15625 0.95313,-0.25c0.30209,-0.10416 0.59375,-0.21875 0.875,-0.34375c0.28125,-0.125 0.54688,-0.25 0.79688,-0.375c0.07291,-0.02083 0.13021,-0.03646 0.17188,-0.04687c0.05209,-0.01041 0.09896,-0.01562 0.14063,-0.01562c0,0 -0.00521,0.0625 -0.01562,0.1875c0,0.11459 0,0.28125 0,0.5c0,0.20834 0,0.46354 0,0.76563c0,0.30209 -0.00521,0.63542 -0.01562,1c0.02084,0.04167 0.03125,0.08334 0.03125,0.125c0.01041,0.03125 0.01563,0.05729 0.01563,0.07813c0,0.08334 -0.08334,0.17709 -0.25,0.28125c-0.15625,0.10417 -0.36459,0.21354 -0.625,0.32813c-0.26041,0.11459 -0.55729,0.21875 -0.89062,0.3125c-0.33334,0.10417 -0.67709,0.19792 -1.03125,0.28125c-0.34375,0.09375 -0.67709,0.16146 -1,0.20313c-0.32291,0.05209 -0.60937,0.07813 -0.85937,0.07813c-0.79166,0 -1.5625,-0.14062 -2.3125,-0.42187c-0.75,-0.27083 -1.41666,-0.66146 -2,-1.17187c-0.57291,-0.52083 -1.03125,-1.15104 -1.375,-1.89062c-0.34375,-0.73958 -0.51562,-1.57291 -0.51562,-2.5c0,-0.95833 0.16146,-1.85937 0.48438,-2.70312c0.33334,-0.84375 0.80209,-1.57812 1.40625,-2.20312c0.60416,-0.63541 1.32291,-1.13021 2.15625,-1.48437c0.83334,-0.36458 1.75,-0.54687 2.75,-0.54687zM222.71212,178.90616c-0.30209,0 -0.57812,0.06771 -0.82812,0.20313c-0.25,0.125 -0.48437,0.30729 -0.70312,0.54688c-0.20834,0.23959 -0.39062,0.52604 -0.54687,0.85938c-0.15625,0.33334 -0.28125,0.70313 -0.375,1.10938c0.76041,-0.125 1.39063,-0.26041 1.89063,-0.40625c0.5,-0.15625 0.90104,-0.30729 1.20313,-0.45312c0.3125,-0.15625 0.53125,-0.30729 0.65625,-0.45312c0.125,-0.15625 0.1875,-0.30208 0.1875,-0.4375c0,-0.13541 -0.05209,-0.26041 -0.15625,-0.375c-0.10416,-0.125 -0.22916,-0.22916 -0.375,-0.3125c-0.14584,-0.09375 -0.30729,-0.16146 -0.48437,-0.20312c-0.16666,-0.05208 -0.32291,-0.07812 -0.46875,-0.07812zM228.67375,182.90616c0,-0.95833 0.17708,-1.85937 0.53125,-2.70312c0.35417,-0.84375 0.84896,-1.57812 1.48438,-2.20312c0.63542,-0.63541 1.38021,-1.13021 2.23438,-1.48437c0.86458,-0.36458 1.80208,-0.54687 2.8125,-0.54687c0.67708,0 1.26042,0.05729 1.75,0.17188c0.48958,0.10417 0.88542,0.22396 1.1875,0.35938c0.3125,0.13542 0.54167,0.26042 0.6875,0.375c0.14583,0.11459 0.21875,0.17709 0.21875,0.1875c0,0.04167 -0.01562,0.16667 -0.04687,0.375c-0.03125,0.19792 -0.06771,0.43229 -0.10937,0.70313c-0.04167,0.27084 -0.08333,0.54688 -0.125,0.82813c-0.03125,0.28125 -0.04687,0.52604 -0.04687,0.73438c0,0.04167 -0.01042,0.08334 -0.03125,0.125c-0.02083,0.04167 -0.07812,0.0625 -0.17187,0.0625c-0.09375,0 -0.22396,-0.03125 -0.39062,-0.09375c-0.16667,-0.0625 -0.375,-0.13021 -0.625,-0.20312c-0.25,-0.07291 -0.53646,-0.14062 -0.85937,-0.20312c-0.3125,-0.0625 -0.66667,-0.09375 -1.0625,-0.09375c-0.47917,0 -0.91667,0.08854 -1.3125,0.26563c-0.38542,0.16667 -0.71875,0.40625 -1,0.71875c-0.28125,0.30209 -0.5,0.66667 -0.65625,1.09375c-0.14583,0.41667 -0.21875,0.86459 -0.21875,1.34375c0,0.51042 0.07813,0.94792 0.23438,1.3125c0.15625,0.35417 0.36458,0.64584 0.625,0.875c0.27083,0.21875 0.57813,0.38021 0.92188,0.48438c0.35417,0.10417 0.71875,0.15625 1.09375,0.15625c0.44792,0 0.89583,-0.05729 1.34375,-0.17187c0.44792,-0.125 0.875,-0.30208 1.28125,-0.53125c0.01042,0 0.03646,0 0.07813,0c0.04167,0 0.06771,0.02084 0.07813,0.0625c0.02083,0.03125 0.03125,0.09896 0.03125,0.20313c0,0.22917 0,0.51563 0,0.85938c0,0.33334 0,0.65625 0,0.96875c0,0.30209 -0.00521,0.5625 -0.01562,0.78125c-0.01042,0.20834 -0.02083,0.3125 -0.03125,0.3125c-0.26042,0.17709 -0.54687,0.31771 -0.85937,0.42188c-0.30208,0.11459 -0.61979,0.20313 -0.95312,0.26563c-0.33333,0.07292 -0.66667,0.11979 -1,0.14063c-0.32292,0.02084 -0.64062,0.03125 -0.95312,0.03125c-0.86458,0 -1.67187,-0.14583 -2.42187,-0.4375c-0.73958,-0.28125 -1.38542,-0.68229 -1.9375,-1.20312c-0.54167,-0.53125 -0.97396,-1.16146 -1.29687,-1.89062c-0.3125,-0.73958 -0.46875,-1.55729 -0.46875,-2.45312zM246.45354,188.89054c-1.03125,0 -1.94271,-0.17187 -2.73437,-0.51562c-0.78125,-0.33333 -1.4375,-0.78125 -1.96875,-1.34375c-0.53125,-0.57291 -0.93229,-1.22396 -1.20312,-1.95312c-0.26042,-0.73958 -0.39062,-1.5 -0.39062,-2.28125c0,-0.79166 0.125,-1.54166 0.375,-2.25c0.26042,-0.71875 0.625,-1.35937 1.09375,-1.92187c0.46875,-0.5625 1.02604,-1.03125 1.67188,-1.40625c0.64583,-0.38541 1.35938,-0.64583 2.14063,-0.78125c0.125,0 0.1875,-0.02604 0.1875,-0.07812c0,-0.07291 -0.01042,-0.14583 -0.03125,-0.21875c-0.02084,-0.07291 -0.03125,-0.13541 -0.03125,-0.1875c0,-0.08333 0.01563,-0.13541 0.04688,-0.15625c0.03125,-0.03125 0.0625,-0.04687 0.09375,-0.04687c1.40625,0 2.60416,0.16146 3.59375,0.48438c0.98958,0.3125 1.79166,0.75 2.40625,1.3125c0.625,0.55209 1.07813,1.20313 1.35938,1.95313c0.28125,0.75 0.42188,1.55729 0.42188,2.42188c0,1.09375 -0.1875,2.07292 -0.5625,2.9375c-0.36459,0.86459 -0.86459,1.59896 -1.5,2.20313c-0.63542,0.59375 -1.38021,1.04688 -2.23437,1.35938c-0.85417,0.3125 -1.76562,0.46875 -2.73437,0.46875zM244.40666,182.67179c0,0.39584 0.04166,0.79167 0.125,1.1875c0.09375,0.38542 0.23438,0.73959 0.42188,1.0625c0.19791,0.3125 0.45313,0.56771 0.76563,0.76563c0.32291,0.19792 0.71875,0.29688 1.1875,0.29688c0.34375,-0.02083 0.64063,-0.09896 0.89063,-0.23437c0.26041,-0.13541 0.47916,-0.3125 0.65625,-0.53125c0.1875,-0.21875 0.34375,-0.46354 0.46875,-0.73437c0.125,-0.27083 0.21875,-0.55208 0.28125,-0.84375c0.07291,-0.29166 0.125,-0.57812 0.15625,-0.85937c0.03125,-0.28125 0.04688,-0.53646 0.04688,-0.76562c0,-0.38541 -0.05729,-0.76041 -0.17187,-1.125c-0.11459,-0.36458 -0.28646,-0.6875 -0.51562,-0.96875c-0.21875,-0.28125 -0.49479,-0.51041 -0.82812,-0.6875c-0.32292,-0.17708 -0.69792,-0.26562 -1.125,-0.26562c-0.4375,0 -0.80729,0.13542 -1.10937,0.40625c-0.30209,0.26042 -0.54687,0.58334 -0.73437,0.96875c-0.17709,0.375 -0.30729,0.77604 -0.39062,1.20313c-0.08334,0.42709 -0.125,0.80209 -0.125,1.125zM263.27562,182.01554c0.02083,-0.23958 0.04166,-0.48437 0.0625,-0.73437c0.03125,-0.26041 0.06771,-0.53125 0.10938,-0.8125c-0.17709,-0.4375 -0.42187,-0.79687 -0.73437,-1.07812c-0.30209,-0.28125 -0.6875,-0.42187 -1.15625,-0.42187c-0.45834,0 -0.84896,0.13542 -1.17187,0.40625c-0.3125,0.26042 -0.5625,0.58334 -0.75,0.96875c-0.1875,0.375 -0.32812,0.77604 -0.42187,1.20313c-0.08334,0.42709 -0.125,0.80209 -0.125,1.125c0,0.39584 0.02604,0.79167 0.07813,1.1875c0.05208,0.38542 0.13021,0.73959 0.23438,1.0625c0.10416,0.3125 0.24479,0.56771 0.42188,0.76563c0.17708,0.19792 0.40104,0.29688 0.67188,0.29688c0.64583,-0.03125 1.17188,-0.18229 1.57813,-0.45312c0.40625,-0.27083 0.72916,-0.59896 0.96875,-0.98437zM267.135,187.18741c0,0.02084 -0.00521,0.04167 -0.01562,0.0625c0,0.01042 0,0.02604 0,0.04688c0,0.03125 0,0.0625 0,0.09375c0.01041,0.02084 0.01563,0.04167 0.01563,0.0625c0,0.0625 -0.02604,0.11459 -0.07812,0.15625c-0.04167,0.04167 -0.16146,0.08854 -0.35937,0.14063l-2.96875,0.95313c-0.08334,0.03125 -0.19271,0.06771 -0.32812,0.10938c-0.125,0.05209 -0.25,0.07813 -0.375,0.07813c-0.10417,0 -0.19792,-0.02604 -0.28125,-0.07812c-0.07292,-0.05208 -0.10937,-0.15104 -0.10937,-0.29687c0,-0.125 0,-0.22916 0,-0.3125c0.01041,-0.08333 0.01563,-0.15625 0.01563,-0.21875c0,-0.07291 0.00521,-0.15104 0.01563,-0.23437c0.01041,-0.08333 0.02604,-0.19271 0.04688,-0.32812c-0.55209,0.44792 -1.125,0.80209 -1.71875,1.0625c-0.58334,0.27084 -1.19792,0.40625 -1.84375,0.40625c-0.70834,0 -1.33854,-0.17187 -1.89062,-0.51562c-0.55209,-0.33333 -1.01562,-0.78125 -1.39062,-1.34375c-0.375,-0.5625 -0.66146,-1.20312 -0.85937,-1.92187c-0.1875,-0.72916 -0.28125,-1.48958 -0.28125,-2.28125c0,-1.03125 0.16666,-1.96875 0.5,-2.8125c0.33333,-0.84375 0.78646,-1.5625 1.35938,-2.15625c0.58333,-0.60416 1.25521,-1.06771 2.01563,-1.39062c0.77083,-0.33333 1.58854,-0.5 2.45313,-0.5c0.45833,0 0.90104,0.125 1.32813,0.375c0.42708,0.23959 0.82813,0.54688 1.20313,0.92188c0.02083,-0.35416 0.04688,-0.74479 0.07813,-1.17187c0.03125,-0.42708 0.05729,-0.85937 0.07813,-1.29687c0.03125,-0.4375 0.0625,-0.86979 0.09375,-1.29687c0.03125,-0.42708 0.05729,-0.81771 0.07813,-1.17187c0,-0.0625 0.02083,-0.11458 0.0625,-0.15625c0.05208,-0.04166 0.17708,-0.08854 0.375,-0.14062l3.10938,-0.75c0.08333,-0.01041 0.19271,-0.04166 0.32813,-0.09375c0.13541,-0.05208 0.26563,-0.07812 0.39063,-0.07812c0.09375,0 0.18229,0.02604 0.26563,0.07813c0.08333,0.04167 0.125,0.125 0.125,0.25c0,0.01042 -0.00521,0.04167 -0.01562,0.09375c0,0.04167 0,0.07292 0,0.09375zM276.19664,175.96866c0.69791,0 1.33333,0.13021 1.90625,0.39063c0.57291,0.26042 1.0625,0.59896 1.46875,1.01563c0.41666,0.41667 0.73438,0.88542 0.95313,1.40625c0.21875,0.51042 0.32813,1.02604 0.32813,1.54688c0,0.45834 -0.14062,0.91667 -0.42187,1.375c-0.28125,0.45834 -0.67709,0.875 -1.1875,1.25c-0.5,0.36459 -1.10417,0.66146 -1.8125,0.89063c-0.70834,0.22917 -1.48437,0.34375 -2.32812,0.34375c-0.44792,0 -0.91146,-0.04687 -1.39062,-0.14062c0.02083,0.32292 0.10938,0.59896 0.26563,0.82813c0.15625,0.22917 0.35416,0.41667 0.59375,0.5625c0.23958,0.14584 0.50521,0.25521 0.79688,0.32813c0.30208,0.07292 0.60938,0.10938 0.92188,0.10938c0.35416,0 0.69271,-0.03125 1.01563,-0.09375c0.33333,-0.07291 0.65104,-0.15625 0.95313,-0.25c0.30208,-0.10416 0.59375,-0.21875 0.875,-0.34375c0.28125,-0.125 0.54688,-0.25 0.79688,-0.375c0.07291,-0.02083 0.13021,-0.03646 0.17188,-0.04687c0.05208,-0.01041 0.09896,-0.01562 0.14063,-0.01562c0,0 -0.00521,0.0625 -0.01562,0.1875c0,0.11459 0,0.28125 0,0.5c0,0.20834 0,0.46354 0,0.76563c0,0.30209 -0.00521,0.63542 -0.01562,1c0.02083,0.04167 0.03125,0.08334 0.03125,0.125c0.01041,0.03125 0.01563,0.05729 0.01563,0.07813c0,0.08334 -0.08334,0.17709 -0.25,0.28125c-0.15625,0.10417 -0.36459,0.21354 -0.625,0.32813c-0.26042,0.11459 -0.55729,0.21875 -0.89062,0.3125c-0.33334,0.10417 -0.67709,0.19792 -1.03125,0.28125c-0.34375,0.09375 -0.67709,0.16146 -1,0.20313c-0.32292,0.05209 -0.60937,0.07813 -0.85937,0.07813c-0.79167,0 -1.5625,-0.14062 -2.3125,-0.42187c-0.75,-0.27083 -1.41667,-0.66146 -2,-1.17187c-0.57292,-0.52083 -1.03125,-1.15104 -1.375,-1.89062c-0.34375,-0.73958 -0.51562,-1.57291 -0.51562,-2.5c0,-0.95833 0.16146,-1.85937 0.48438,-2.70312c0.33333,-0.84375 0.80208,-1.57812 1.40625,-2.20312c0.60416,-0.63541 1.32291,-1.13021 2.15625,-1.48437c0.83333,-0.36458 1.75,-0.54687 2.75,-0.54687zM276.05602,178.90616c-0.30209,0 -0.57812,0.06771 -0.82812,0.20313c-0.25,0.125 -0.48437,0.30729 -0.70312,0.54688c-0.20834,0.23959 -0.39062,0.52604 -0.54687,0.85938c-0.15625,0.33334 -0.28125,0.70313 -0.375,1.10938c0.76041,-0.125 1.39063,-0.26041 1.89063,-0.40625c0.5,-0.15625 0.90104,-0.30729 1.20313,-0.45312c0.3125,-0.15625 0.53125,-0.30729 0.65625,-0.45312c0.125,-0.15625 0.1875,-0.30208 0.1875,-0.4375c0,-0.13541 -0.05209,-0.26041 -0.15625,-0.375c-0.10417,-0.125 -0.22917,-0.22916 -0.375,-0.3125c-0.14584,-0.09375 -0.30729,-0.16146 -0.48437,-0.20312c-0.16667,-0.05208 -0.32292,-0.07812 -0.46875,-0.07812z" fill="#000000" fill-rule="nonzero"/></g></g></svg>